<svg xmlns="http://www.w3.org/2000/svg" xmlns:xlink="http://www.w3.org/1999/xlink" width="415.344" height="415.382" viewBox="0 0 415.344 415.382">
  <defs>
    <clipPath id="clip-path">
      <rect id="Rectangle_262" data-name="Rectangle 262" width="415.344" height="415.382" fill="none" stroke="#707070" stroke-width="10"/>
    </clipPath>
    <clipPath id="clip-path-2">
      <rect id="Rectangle_261" data-name="Rectangle 261" width="415.341" height="415.379" fill="none" stroke="#707070" stroke-width="10"/>
    </clipPath>
  </defs>
  <g id="Group_225" data-name="Group 225" opacity="0.2">
    <g id="Group_224" data-name="Group 224" clip-path="url(#clip-path)">
      <g id="Group_223" data-name="Group 223" transform="translate(0 0.003)">
        <g id="Group_222" data-name="Group 222" clip-path="url(#clip-path-2)">
          <g id="Group_221" data-name="Group 221" transform="translate(0 -0.003)" opacity="0.8">
            <g id="Group_220" data-name="Group 220" transform="translate(0 0)">
              <g id="Group_219" data-name="Group 219" clip-path="url(#clip-path)">
                <path id="Path_203" data-name="Path 203" d="M347.492,196.075A151.455,151.455,0,1,0,196.037,347.53,151.462,151.462,0,0,0,347.492,196.075Zm-20.32-75.715c35-20.207,11.662-48.377,11.662-67.057-18.68,0-46.888-23.375-67.07,11.6M64.864,271.8C29.89,292,53.239,320.18,53.239,338.884c18.7,0,46.863,23.324,67.069-11.637m0-262.346C100.1,29.928,71.944,53.3,53.227,53.3c0,18.68-23.312,46.85,11.649,67.057M271.764,327.248c20.181,34.961,48.39,11.637,67.057,11.637,0-18.7,23.362-46.888-11.624-67.082m20.295-75.728c40.376,0,34.267-36.059,43.607-52.265-16.193-9.34-28.928-43.657-63.9-23.463M44.581,196.075c-40.4,0-34.254,36.084-43.581,52.29C17.168,257.692,29.89,292,64.876,271.79m131.16-227.17c0-40.388-36.1-34.254-52.277-43.607-9.34,16.193-43.644,28.928-23.45,63.889m75.728,282.616c.025,40.4,36.084,34.279,52.252,43.619,9.352-16.18,43.657-28.915,23.476-63.889m55.407-55.458c35,20.207,47.734-14.1,63.927-23.425-9.34-16.231-3.231-52.29-43.581-52.29M64.864,120.347C29.89,100.128,17.168,134.47,1,143.81c9.327,16.206,3.181,52.252,43.607,52.252M271.764,64.889C291.946,29.915,257.654,17.206,248.289,1c-16.18,9.352-52.252,3.231-52.252,43.619m-75.7,282.628c-20.219,34.974,14.085,47.708,23.438,63.889,16.168-9.352,52.265-3.218,52.265-43.607m0-302.911L64.864,271.8m262.283-.013L64.864,271.8m262.283-.013L196.037,44.619m87.4,151.455L327.2,120.347M196.037,347.53l43.733-75.74m0-151.43,87.428-.013m-262.283.013H152.3m.025,151.443,43.707,75.728M64.914,120.359l43.708,75.715" transform="translate(11.621 11.621)" fill="none" stroke="#bf7c51" stroke-linecap="round" stroke-linejoin="round" stroke-width="10"/>
              </g>
            </g>
          </g>
        </g>
      </g>
    </g>
  </g>
</svg>
