<svg id="Group_211" data-name="Group 211" xmlns="http://www.w3.org/2000/svg" xmlns:xlink="http://www.w3.org/1999/xlink" width="59" height="59" viewBox="0 0 59 59">
  <defs>
    <clipPath id="clip-path">
      <rect id="Rectangle_251" data-name="Rectangle 251" width="59" height="59" fill="none" stroke="#fef7ec" stroke-width="1"/>
    </clipPath>
    <clipPath id="clip-path-2">
      <rect id="Rectangle_250" data-name="Rectangle 250" width="59" height="59" transform="translate(0 0)" fill="none" stroke="#fef7ec" stroke-width="1"/>
    </clipPath>
  </defs>
  <g id="Group_210" data-name="Group 210" clip-path="url(#clip-path)">
    <g id="Group_209" data-name="Group 209" transform="translate(0 0)">
      <g id="Group_208" data-name="Group 208" clip-path="url(#clip-path-2)">
        <g id="Group_207" data-name="Group 207" opacity="0.8">
          <g id="Group_206" data-name="Group 206">
            <g id="Group_205" data-name="Group 205" clip-path="url(#clip-path-2)">
              <path id="Path_201" data-name="Path 201" d="M7.938,28.764A20.824,20.824,0,1,0,28.762,7.94,20.825,20.825,0,0,0,7.938,28.764ZM28.762,18.352A10.412,10.412,0,1,1,18.35,28.764,10.415,10.415,0,0,1,28.762,18.352ZM17.2,11.449C14.112,6.831,11,9,9.13,9.134,9,11,6.829,14.112,11.44,17.193m28.9,28.893c3.08,4.614,6.193,2.445,8.061,2.313.132-1.869,2.3-4.984-2.317-8.071m-34.632,0C6.832,43.415,9,46.53,9.13,48.4c1.865.132,4.979,2.3,8.061-2.313m28.9-28.892C50.7,14.112,48.528,11,48.4,9.134c-1.869-.134-4.984-2.3-8.069,2.315M8.342,24.7C2.895,23.617,2.225,27.355,1,28.766c1.225,1.413,1.892,5.147,7.332,4.066m40.862,0c5.44,1.081,6.108-2.653,7.335-4.066-1.227-1.411-1.9-5.147-7.346-4.068M24.7,49.189c-1.081,5.444,2.653,6.115,4.066,7.341,1.413-1.225,5.149-1.893,4.066-7.332m0-40.864C33.913,2.893,30.176,2.227,28.764,1,27.351,2.227,23.617,2.9,24.7,8.342m.009,0c-1.086-5.446-4.795-4.633-6.568-5.227-.836,1.675-4.033,3.717-.951,8.331M32.824,49.194c1.083,5.44,4.788,4.63,6.563,5.222.836-1.676,4.029-3.722.947-8.342m-32-13.251C2.893,33.907,3.7,37.614,3.112,39.388c1.673.84,3.719,4.031,8.33.953M49.2,24.7c5.439-1.083,4.626-4.79,5.22-6.565-1.675-.833-3.724-4.029-8.342-.946m-34.62,0c-4.619-3.084-6.669.113-8.342.947.592,1.774-.22,5.48,5.218,6.563M46.083,40.34c4.613,3.079,6.659-.113,8.333-.949-.593-1.774.215-5.482-5.23-6.57M17.193,46.077c-3.084,4.619.109,6.665.946,8.338,1.774-.592,5.482.22,6.563-5.218M40.34,11.445c3.08-4.614-.116-6.657-.951-8.333-1.775.6-5.482-.215-6.568,5.23M28.762,49.588,46.794,18.353m0,0H10.732m0,0,18.03,31.234" transform="translate(0.735 0.735)" fill="none" stroke="#fef7ec" stroke-linecap="round" stroke-linejoin="round" stroke-width="2"/>
            </g>
          </g>
        </g>
      </g>
    </g>
  </g>
</svg>
