<svg id="Group_218" data-name="Group 218" xmlns="http://www.w3.org/2000/svg" xmlns:xlink="http://www.w3.org/1999/xlink" width="51.548" height="59" viewBox="0 0 51.548 59">
  <defs>
    <clipPath id="clip-path">
      <rect id="Rectangle_254" data-name="Rectangle 254" width="51.548" height="59" fill="none" stroke="#f1dad2" stroke-width="1"/>
    </clipPath>
    <clipPath id="clip-path-2">
      <rect id="Rectangle_253" data-name="Rectangle 253" width="51.548" height="58.999" fill="none" stroke="#f1dad2" stroke-width="1"/>
    </clipPath>
  </defs>
  <g id="Group_217" data-name="Group 217" clip-path="url(#clip-path)">
    <g id="Group_216" data-name="Group 216" transform="translate(0 0.001)">
      <g id="Group_215" data-name="Group 215" clip-path="url(#clip-path-2)">
        <g id="Group_214" data-name="Group 214" transform="translate(0 -0.001)" opacity="0.8">
          <g id="Group_213" data-name="Group 213">
            <g id="Group_212" data-name="Group 212" clip-path="url(#clip-path)">
              <path id="Path_202" data-name="Path 202" d="M8.2,28.811A16.886,16.886,0,1,0,25.086,11.925,16.888,16.888,0,0,0,8.2,28.811Zm5.066-5.066a11.82,11.82,0,1,0,11.82-11.82A11.826,11.826,0,0,0,13.266,23.745Zm20.263-9.557C37.582,7.165,26.906,2.824,25.086,1,23.264,2.824,12.6,7.17,16.643,14.186m0,29.248c-4.049,7.023,6.623,11.369,8.443,13.188,1.822-1.819,12.489-6.168,8.443-13.188m8.443-14.623c8.109,0,6.531-11.42,7.2-13.906-2.489-.669-11.59-7.729-15.643-.718M8.2,28.811C.092,28.814,1.667,40.233,1,42.72c2.487.664,11.59,7.73,15.643.714m16.886,0c4.053,7.023,13.156-.052,15.643-.714-.667-2.491.9-13.9-7.2-13.909M16.643,14.19C12.587,7.168,3.486,14.24,1,14.906c.667,2.489-.9,13.9,7.2,13.906" transform="translate(0.689 0.689)" fill="none" stroke="#f1dad2" stroke-linecap="round" stroke-linejoin="round" stroke-width="2"/>
            </g>
          </g>
        </g>
      </g>
    </g>
  </g>
</svg>
