<svg id="Group_194" data-name="Group 194" xmlns="http://www.w3.org/2000/svg" xmlns:xlink="http://www.w3.org/1999/xlink" width="79.002" height="90.425" viewBox="0 0 79.002 90.425">
  <defs>
    <clipPath id="clip-path">
      <rect id="Rectangle_240" data-name="Rectangle 240" width="79.002" height="90.425" fill="none" stroke="#ad4a50" stroke-width="3"/>
    </clipPath>
  </defs>
  <g id="Group_193" data-name="Group 193" clip-path="url(#clip-path)">
    <g id="Group_192" data-name="Group 192">
      <g id="Group_191" data-name="Group 191" clip-path="url(#clip-path)">
        <g id="Group_190" data-name="Group 190" opacity="0.8">
          <g id="Group_189" data-name="Group 189">
            <g id="Group_188" data-name="Group 188" clip-path="url(#clip-path)">
              <path id="Path_199" data-name="Path 199" d="M59.09,84.431,39.339,54.247c13.361,0,15.122-.857,16.114,6.1.474,3.334,4.217,26.431,4.217,26.431M51.194,29.108c.432,3.042-1.88,6.664-6.769,6.664-21.737,0-26.756,2.472-30.8,10.312C8.756,55.514,1,86.778,1,86.778H5.791S21.945,58.895,23.767,58.895,52.119,86.778,52.119,86.778H66.061M47.177,1l4.966,34.773C53.464,45.044,54.824,49.6,61.413,49.6h6.971a6.971,6.971,0,0,0,0-13.942c-5.96,0-16.242.114-16.242.114" transform="translate(1.324 1.324)" fill="none" stroke="#ad4a50" stroke-linecap="round" stroke-linejoin="round" stroke-width="3"/>
            </g>
          </g>
        </g>
      </g>
    </g>
  </g>
</svg>
