<svg id="Group_187" data-name="Group 187" xmlns="http://www.w3.org/2000/svg" xmlns:xlink="http://www.w3.org/1999/xlink" width="92.586" height="90.425" viewBox="0 0 92.586 90.425">
  <defs>
    <clipPath id="clip-path">
      <rect id="Rectangle_237" data-name="Rectangle 237" width="92.586" height="90.425" fill="none" stroke="#ad4a50" stroke-width="3"/>
    </clipPath>
    <clipPath id="clip-path-2">
      <rect id="Rectangle_236" data-name="Rectangle 236" width="92.585" height="90.425" fill="none" stroke="#ad4a50" stroke-width="3"/>
    </clipPath>
  </defs>
  <g id="Group_186" data-name="Group 186" clip-path="url(#clip-path)">
    <g id="Group_185" data-name="Group 185" transform="translate(0 0)">
      <g id="Group_184" data-name="Group 184" clip-path="url(#clip-path-2)">
        <g id="Group_183" data-name="Group 183" opacity="0.8">
          <g id="Group_182" data-name="Group 182">
            <g id="Group_181" data-name="Group 181" clip-path="url(#clip-path)">
              <path id="Path_198" data-name="Path 198" d="M54.417,17.621a9.5,9.5,0,1,1-19,0V10.5a9.5,9.5,0,0,1,19,0Zm13.05,59.819L50.578,69.366,22.213,77.439M35.422,46.114,33.043,61.842S23.8,66,20.026,67.97s-8.348,4.49-8.348,10.644c0,4.9,3.519,8.061,8.268,8.061s15.476-3.061,24.974-5.625,18.537-5.528,18.537-5.528M44.92,81.051c9.5,2.564,20.225,5.428,24.974,5.428s8.268-3.165,8.268-8.059c0-6.157-4.571-8.7-8.348-10.682S56.8,61.548,56.8,61.548L54.417,46.114M1,72.987S11.531,65.515,16.277,57.87,25.58,39.933,28.3,36.616s11.872-6.062,11.872-6.062V25.841m9.5,0v4.713S58.822,33.3,61.54,36.616s7.273,13.61,12.022,21.253S88.837,72.987,88.837,72.987" transform="translate(1.374 1.374)" fill="none" stroke="#ad4a50" stroke-linecap="round" stroke-linejoin="round" stroke-width="3"/>
            </g>
          </g>
        </g>
      </g>
    </g>
  </g>
</svg>
