<svg xmlns="http://www.w3.org/2000/svg" xmlns:xlink="http://www.w3.org/1999/xlink" width="24.722" height="24.722" viewBox="0 0 24.722 24.722">
  <defs>
    <clipPath id="clip-path">
      <rect id="Rectangle_224" data-name="Rectangle 224" width="24.722" height="24.722" transform="translate(0 0)" fill="#fff"/>
    </clipPath>
  </defs>
  <g id="Group_177" data-name="Group 177" transform="translate(0 0)">
    <g id="Group_176" data-name="Group 176" clip-path="url(#clip-path)">
      <path id="Path_193" data-name="Path 193" d="M24.722,12.361A12.361,12.361,0,1,1,12.361,0,12.361,12.361,0,0,1,24.722,12.361" fill="#fff"/>
      <path id="Path_194" data-name="Path 194" d="M18.932,9.125A3.472,3.472,0,0,0,17.873,6.89a3.627,3.627,0,0,0-2.4-.975A47.291,47.291,0,0,0,9,5.987,3.306,3.306,0,0,0,6.163,8.53,36.485,36.485,0,0,0,6.1,15.88a3.314,3.314,0,0,0,2.63,2.856,38.765,38.765,0,0,0,7.248.048,3.32,3.32,0,0,0,2.868-2.618,41.028,41.028,0,0,0,.09-7.041m-1.2,6.542a2.216,2.216,0,0,1-2.084,1.978,38.954,38.954,0,0,1-6.753-.094A2.147,2.147,0,0,1,7.262,15.7a43.708,43.708,0,0,1,0-6.608A2.212,2.212,0,0,1,9.334,7.124a46.194,46.194,0,0,1,6.446.026,2.218,2.218,0,0,1,1.974,2.088,46.967,46.967,0,0,1-.027,6.429M12.493,9.029a3.358,3.358,0,1,0,3.355,3.359,3.357,3.357,0,0,0-3.355-3.359m-.024,5.526A2.171,2.171,0,1,1,14.66,12.4a2.17,2.17,0,0,1-2.191,2.151m4.3-5.653a.786.786,0,1,1-.784-.788.786.786,0,0,1,.784.788" fill="#fff"/>
      <path id="Path_195" data-name="Path 195" d="M18.932,9.125A3.472,3.472,0,0,0,17.873,6.89a3.627,3.627,0,0,0-2.4-.975A47.291,47.291,0,0,0,9,5.987,3.306,3.306,0,0,0,6.163,8.53,36.485,36.485,0,0,0,6.1,15.88a3.314,3.314,0,0,0,2.63,2.856,38.765,38.765,0,0,0,7.248.048,3.32,3.32,0,0,0,2.868-2.618,41.028,41.028,0,0,0,.09-7.041m-1.2,6.542a2.216,2.216,0,0,1-2.084,1.978,38.954,38.954,0,0,1-6.753-.094A2.147,2.147,0,0,1,7.262,15.7a43.708,43.708,0,0,1,0-6.608A2.212,2.212,0,0,1,9.334,7.124a46.194,46.194,0,0,1,6.446.026,2.218,2.218,0,0,1,1.974,2.088,46.967,46.967,0,0,1-.027,6.429M12.493,9.029a3.358,3.358,0,1,0,3.355,3.359,3.357,3.357,0,0,0-3.355-3.359m-.024,5.526A2.171,2.171,0,1,1,14.66,12.4a2.17,2.17,0,0,1-2.191,2.151m4.3-5.653a.786.786,0,1,1-.784-.788.786.786,0,0,1,.784.788" fill="#0facff"/>
    </g>
  </g>
</svg>
