<svg xmlns="http://www.w3.org/2000/svg" xmlns:xlink="http://www.w3.org/1999/xlink" width="24.722" height="24.722" viewBox="0 0 24.722 24.722">
  <defs>
    <clipPath id="clip-path">
      <rect id="Rectangle_225" data-name="Rectangle 225" width="24.722" height="24.722" transform="translate(0 0)" fill="none"/>
    </clipPath>
  </defs>
  <g id="Group_179" data-name="Group 179" transform="translate(0 0)">
    <g id="Group_178" data-name="Group 178" clip-path="url(#clip-path)">
      <path id="Path_196" data-name="Path 196" d="M24.722,12.361A12.361,12.361,0,1,1,12.361,0,12.361,12.361,0,0,1,24.722,12.361" fill="#fff"/>
      <path id="Path_197" data-name="Path 197" d="M7.2,16.651a1.511,1.511,0,0,1-1-.97c-.432-1.188-.56-6.158.272-7.138a1.613,1.613,0,0,1,1.086-.577c2.241-.241,9.17-.207,9.969.081a1.561,1.561,0,0,1,.98.943c.473,1.228.489,5.7-.062,6.88a1.522,1.522,0,0,1-.7.71c-.836.439-9.444.433-10.544.071m3.561-2.33L14.8,12.227,10.76,10.12Z" fill="#0facff" fill-rule="evenodd"/>
    </g>
  </g>
</svg>
