<svg xmlns="http://www.w3.org/2000/svg" xmlns:xlink="http://www.w3.org/1999/xlink" width="600" zoomAndPan="magnify" viewBox="0 0 450 149.999998" height="200" preserveAspectRatio="xMidYMid meet" version="1.0"><defs><g/><clipPath id="4c8f515815"><path d="M 116 6.417969 L 266.664062 6.417969 L 266.664062 88.820312 L 116 88.820312 Z M 116 6.417969 " clip-rule="nonzero"/></clipPath></defs><g fill="#ffffff" fill-opacity="1"><g transform="translate(100.103925, 133.799502)"><g><path d="M 15.382812 0.691406 C 22.53125 0.691406 28.449219 -2.910156 28.449219 -10.355469 C 28.449219 -18.09375 21.84375 -19.722656 16.617188 -21.054688 C 12.917969 -21.941406 9.960938 -22.679688 9.960938 -25.097656 C 9.960938 -27.363281 12.375 -28.398438 14.792969 -28.398438 C 17.601562 -28.398438 20.066406 -27.019531 20.066406 -24.011719 L 27.414062 -24.011719 C 27.414062 -30.914062 22.925781 -35.15625 14.988281 -35.15625 C 7.347656 -35.15625 2.464844 -31.40625 2.464844 -24.800781 C 2.464844 -17.355469 8.777344 -15.828125 14.003906 -14.546875 C 17.75 -13.707031 20.90625 -12.96875 20.90625 -10.253906 C 20.90625 -7.691406 18.144531 -6.210938 15.335938 -6.210938 C 12.277344 -6.210938 9.515625 -7.839844 9.515625 -11.144531 L 1.972656 -11.144531 C 1.972656 -3.746094 7.445312 0.691406 15.382812 0.691406 Z M 15.382812 0.691406 "/></g></g></g><g fill="#ffffff" fill-opacity="1"><g transform="translate(130.624287, 133.799502)"><g><path d="M 3.453125 -30.175781 L 10.601562 -30.175781 L 10.601562 -36.832031 L 3.453125 -36.832031 Z M 3.453125 0 L 10.648438 0 L 10.648438 -26.625 L 3.453125 -26.625 Z M 3.453125 0 "/></g></g></g><g fill="#ffffff" fill-opacity="1"><g transform="translate(144.725772, 133.799502)"><g><path d="M 16.46875 -6.410156 C 13.804688 -6.410156 12.328125 -7.890625 12.328125 -10.453125 L 12.328125 -20.808594 L 19.574219 -20.808594 L 19.574219 -26.625 L 12.226562 -26.625 L 12.226562 -33.527344 L 10.847656 -33.527344 L 0.34375 -22.386719 L 0.34375 -20.808594 L 5.128906 -20.808594 L 5.128906 -9.464844 C 5.128906 -3.597656 8.726562 0 14.59375 0 L 19.722656 0 L 19.722656 -6.410156 Z M 16.46875 -6.410156 "/></g></g></g><g fill="#ffffff" fill-opacity="1"><g transform="translate(165.927323, 133.799502)"><g><path d="M 29.289062 -13.363281 C 29.289062 -21.054688 23.667969 -27.363281 15.480469 -27.363281 C 7.59375 -27.363281 1.675781 -21.300781 1.675781 -13.3125 C 1.675781 -5.324219 7.640625 0.789062 15.480469 0.789062 C 21.695312 0.789062 26.773438 -2.910156 28.695312 -8.726562 L 21.152344 -8.726562 C 20.066406 -6.804688 17.996094 -5.621094 15.480469 -5.621094 C 11.980469 -5.621094 9.613281 -7.640625 8.972656 -11.292969 L 29.140625 -11.292969 C 29.238281 -11.980469 29.289062 -12.671875 29.289062 -13.363281 Z M 15.480469 -21.203125 C 18.734375 -21.203125 21.054688 -19.425781 22.089844 -16.171875 L 9.171875 -16.171875 C 10.007812 -19.328125 12.277344 -21.203125 15.480469 -21.203125 Z M 15.480469 -21.203125 "/></g></g></g><g fill="#ffffff" fill-opacity="1"><g transform="translate(196.891445, 133.799502)"><g><path d="M 12.867188 0.789062 C 19.625 0.789062 24.0625 -2.761719 24.0625 -8.183594 C 24.0625 -14.691406 18.488281 -15.582031 14.152344 -16.371094 C 11.390625 -16.863281 9.121094 -17.304688 9.121094 -19.082031 C 9.121094 -20.609375 10.453125 -21.597656 12.671875 -21.597656 C 15.1875 -21.597656 16.664062 -20.558594 16.714844 -18.441406 L 23.566406 -18.441406 C 23.519531 -23.765625 19.277344 -27.363281 12.867188 -27.363281 C 6.460938 -27.363281 2.167969 -23.863281 2.167969 -18.835938 C 2.167969 -12.574219 7.59375 -11.4375 11.832031 -10.699219 C 14.644531 -10.253906 16.960938 -9.714844 16.960938 -7.890625 C 16.960938 -6.113281 15.136719 -5.175781 13.164062 -5.175781 C 10.601562 -5.175781 8.777344 -6.359375 8.726562 -8.726562 L 1.726562 -8.726562 C 1.726562 -3.058594 6.210938 0.789062 12.867188 0.789062 Z M 12.867188 0.789062 "/></g></g></g><g fill="#ffffff" fill-opacity="1"><g transform="translate(222.777059, 133.799502)"><g><path d="M 16.074219 -21.742188 C 15.039062 -21.742188 14.003906 -21.597656 13.015625 -21.300781 C 14.988281 -24.75 16.960938 -28.054688 19.722656 -32.835938 L 11.980469 -32.835938 L 5.472656 -21.597656 C 2.859375 -17.160156 2.070312 -14.101562 2.070312 -11.191406 C 2.070312 -4.242188 7.148438 0.589844 14.496094 0.589844 C 21.695312 0.589844 26.871094 -4.289062 26.871094 -11.191406 C 26.871094 -17.453125 22.285156 -21.742188 16.074219 -21.742188 Z M 14.445312 -5.917969 C 11.390625 -5.917969 9.171875 -8.085938 9.171875 -11.191406 C 9.171875 -14.347656 11.390625 -16.515625 14.445312 -16.515625 C 17.554688 -16.515625 19.773438 -14.347656 19.773438 -11.191406 C 19.773438 -8.085938 17.554688 -5.917969 14.445312 -5.917969 Z M 14.445312 -5.917969 "/></g></g></g><g fill="#ffffff" fill-opacity="1"><g transform="translate(250.930732, 133.799502)"><g><path d="M 15.582031 0.589844 C 23.765625 0.589844 28.894531 -5.964844 28.894531 -16.417969 C 28.894531 -26.871094 23.816406 -33.378906 15.582031 -33.378906 C 7.394531 -33.378906 2.316406 -26.871094 2.316406 -16.417969 C 2.316406 -5.964844 7.445312 0.589844 15.582031 0.589844 Z M 15.582031 -5.964844 C 11.585938 -5.964844 9.417969 -9.664062 9.417969 -16.417969 C 9.417969 -23.125 11.585938 -26.824219 15.582031 -26.824219 C 19.574219 -26.824219 21.792969 -23.074219 21.792969 -16.371094 C 21.792969 -9.613281 19.625 -5.964844 15.582031 -5.964844 Z M 15.582031 -5.964844 "/></g></g></g><path fill="#ffffff" d="M 168.203125 56.101562 C 168.203125 53.09375 165.757812 50.652344 162.742188 50.652344 L 139.84375 50.652344 C 136.828125 50.652344 134.382812 53.09375 134.382812 56.101562 C 134.382812 59.109375 136.828125 61.550781 139.84375 61.550781 L 162.742188 61.550781 C 165.757812 61.550781 168.203125 59.109375 168.203125 56.101562 " fill-opacity="1" fill-rule="nonzero"/><path fill="#ffffff" d="M 182.097656 69.851562 L 171.632812 69.851562 C 168.617188 69.851562 166.171875 72.289062 166.171875 75.296875 C 166.171875 78.308594 168.617188 80.746094 171.632812 80.746094 L 182.097656 80.746094 C 185.117188 80.746094 187.5625 78.308594 187.5625 75.296875 C 187.5625 72.289062 185.117188 69.851562 182.097656 69.851562 " fill-opacity="1" fill-rule="nonzero"/><g clip-path="url(#4c8f515815)"><path fill="#ffffff" d="M 232.046875 83.242188 C 227.824219 83.242188 223.808594 82.335938 220.183594 80.710938 C 215.003906 78.382812 210.632812 74.582031 207.601562 69.847656 C 205.980469 67.320312 204.746094 64.527344 203.976562 61.550781 C 203.378906 59.238281 203.0625 56.820312 203.0625 54.328125 C 203.0625 53.082031 203.140625 51.855469 203.296875 50.652344 C 203.667969 47.726562 204.484375 44.9375 205.667969 42.351562 C 207.632812 38.054688 210.625 34.316406 214.328125 31.457031 C 214.835938 31.066406 215.351562 30.695312 215.878906 30.335938 C 216.679688 29.800781 217.503906 29.304688 218.351562 28.847656 C 222.429688 26.652344 227.097656 25.410156 232.046875 25.410156 C 248.03125 25.410156 261.03125 38.382812 261.03125 54.328125 C 261.03125 70.269531 248.03125 83.242188 232.046875 83.242188 Z M 236.609375 20.117188 L 236.609375 14.105469 C 238.683594 14.015625 240.339844 12.3125 240.339844 10.21875 C 240.339844 8.070312 238.59375 6.328125 236.4375 6.328125 L 227.65625 6.328125 C 225.503906 6.328125 223.753906 8.070312 223.753906 10.21875 C 223.753906 12.3125 225.410156 14.015625 227.484375 14.105469 L 227.484375 20.117188 C 219.042969 21.234375 211.550781 25.394531 206.164062 31.457031 L 121.652344 31.457031 C 118.644531 31.457031 116.066406 33.800781 116.011719 36.800781 C 115.953125 39.855469 118.417969 42.351562 121.472656 42.351562 L 199.605469 42.351562 C 198.625 44.984375 197.960938 47.765625 197.652344 50.652344 L 178.511719 50.652344 C 175.503906 50.652344 172.925781 53 172.871094 56 C 172.816406 59.054688 175.28125 61.550781 178.328125 61.550781 L 198.21875 61.550781 C 198.84375 64.46875 199.84375 67.253906 201.160156 69.847656 L 195.53125 69.847656 C 192.515625 69.847656 190.066406 72.289062 190.066406 75.296875 C 190.066406 76.800781 190.679688 78.164062 191.667969 79.152344 C 192.65625 80.136719 194.023438 80.746094 195.53125 80.746094 L 209.820312 80.746094 C 215.835938 85.792969 223.59375 88.835938 232.046875 88.835938 C 251.121094 88.835938 266.636719 73.355469 266.636719 54.328125 C 266.636719 36.839844 253.535156 22.351562 236.609375 20.117188 " fill-opacity="1" fill-rule="nonzero"/></g><path fill="#ffffff" d="M 232.949219 49.867188 C 232.660156 49.808594 232.355469 49.777344 232.046875 49.777344 C 229.53125 49.777344 227.484375 51.816406 227.484375 54.324219 C 227.484375 56.835938 229.53125 58.875 232.046875 58.875 C 234.566406 58.875 236.609375 56.835938 236.609375 54.324219 C 236.609375 53.855469 236.539062 53.40625 236.402344 52.976562 L 240.242188 47.542969 L 247.523438 37.230469 L 237.917969 45.558594 L 232.949219 49.867188 " fill-opacity="1" fill-rule="nonzero"/></svg>